HIERARCHY
ROOT ui
{
	 OFFSET 0 0 0
	 CHANNELS 3 XPosition YPosition Z Position
	 EndSite
	 {
	 OFFSET 0 -1 0
	 }
}
ROOT li
{
	 OFFSET 0 0 0
	 CHANNELS 3 XPosition YPosition Z Position
	 EndSite
	 {
	 OFFSET 0 -1 0
	 }
}
ROOT ul
{
	 OFFSET 0 0 0
	 CHANNELS 3 XPosition YPosition Z Position
	 EndSite
	 {
	 OFFSET 0 -1 0
	 }
}
ROOT ll
{
	 OFFSET 0 0 0
	 CHANNELS 3 XPosition YPosition Z Position
	 EndSite
	 {
	 OFFSET 0 -1 0
	 }
}
ROOT tt
{
	 OFFSET 0 0 0
	 CHANNELS 3 XPosition YPosition Z Position
	 EndSite
	 {
	 OFFSET 0 -1 0
	 }
}
ROOT tb
{
	 OFFSET 0 0 0
	 CHANNELS 3 XPosition YPosition Z Position
	 EndSite
	 {
	 OFFSET 0 -1 0
	 }
}
ROOT td
{
	 OFFSET 0 0 0
	 CHANNELS 3 XPosition YPosition Z Position
	 EndSite
	 {
	 OFFSET 0 -1 0
	 }
}
ROOT v
{
	 OFFSET 0 0 0
	 CHANNELS 3 XPosition YPosition Z Position
	 EndSite
	 {
	 OFFSET 0 -1 0
	 }
}
ROOT bn
{
	 OFFSET 0 0 0
	 CHANNELS 3 XPosition YPosition Z Position
	 EndSite
	 {
	 OFFSET 0 -1 0
	 }
}
MOTION
Frames: 13
Frame Time: 0.002
-0.008187561988830567	3.213900029659271E-4	0		0.5504094848632812	-2.56135009765625	0		-1.152875732421875	-0.06331809616088867	0		-0.567446044921875	-2.541251953125	0		2.240318115234375	-1.7730875244140625	0		3.373860595703125	-0.515278564453125	0		4.7011640625	0.31458578491210937	0		6.08313525390625	0.6694344482421875	0		-0.3342230529785156	5.840845703125	0		
-0.004314724922180176	0.0032456369400024414	0		0.6052129516601562	-2.56493359375	0		-1.07403662109375	-0.06413520812988281	0		-0.49162371826171875	-2.543040771484375	0		2.2521357421875	-1.7752489013671875	0		3.376751953125	-0.5103541259765625	0		4.7218681640625	0.30032867431640625	0		6.0830234375	0.669342041015625	0		-0.30030532836914064	5.84647314453125	0		
-0.001506047010421753	0.006204829216003418	0		0.5691000366210938	-2.55358837890625	0		-1.0911971435546874	-0.05797629165649414	0		-0.49184762573242186	-2.54305126953125	0		2.251912841796875	-1.775262451171875	0		3.399499267578125	-0.51359716796875	0		4.72164794921875	0.3003122863769531	0		6.08286669921875	0.6693108520507812	0		-0.334577392578125	5.84080029296875	0		
-0.0048200168609619145	0.0032486300468444825	0		0.5927664794921875	-2.558812255859375	0		-1.09552099609375	-0.061923194885253906	0		-0.4961698913574219	-2.546997802734375	0		2.24370947265625	-1.7671680908203125	0		3.41420458984375	-0.5147301025390625	0		4.71816455078125	0.28035989379882814	0		6.08266357421875	0.6693414916992187	0		-0.3017974853515625	5.84748583984375	0		
-2.1587899327278138E-4	-0.0017634530067443847	0		0.5664581298828125	-2.555515380859375	0		-1.1168359375	-0.05868034362792969	0		-0.4985290832519531	-2.548941650390625	0		2.243367919921875	-1.767125	0		3.3958212890625	-0.518505126953125	0		4.72188720703125	0.2873692932128906	0		6.08241650390625	0.6694334106445312	0		-0.2681005859375	5.8531845703125	0		
-0.009600707054138184	3.846310079097748E-4	0		0.5920336303710938	-2.558711669921875	0		-1.109380126953125	-0.07270525360107422	0		-0.521961181640625	-2.55265673828125	0		2.269781005859375	-1.7863228759765626	0		3.39541845703125	-0.5184307861328125	0		4.7262724609375	0.26640106201171876	0		6.08212744140625	0.669583740234375	0		-0.32054962158203126	5.85175830078125	0		
0.00690774393081665	-0.002705482006072998	0		0.552600830078125	-2.557242919921875	0		-1.1217408447265624	-0.06251544952392578	0		-0.4803681640625	-2.548998291015625	0		2.276430419921875	-1.7762999267578126	0		3.430939208984375	-0.5206875610351562	0		4.7427890625	0.26434121704101565	0		6.0932587890625	0.6816224365234375	0		-0.28601010131835936	5.8554873046875	0		
0.001444625973701477	0.0024399099349975586	0		0.5951359252929688	-2.554568603515625	0		-1.1262828369140625	-0.0653885726928711	0		-0.5277494506835938	-2.53744091796875	0		2.27105078125	-1.76413671875	0		3.41249072265625	-0.5143861083984375	0		4.74629345703125	0.2664353332519531	0		6.0856328125	0.6509066162109375	0		-0.33769601440429686	5.84308740234375	0		
-0.004076663017272949	0.006601035118103027	0		0.5645899047851562	-2.555154296875	0		-1.117893310546875	-0.07037599182128906	0		-0.49433837890625	-2.54267041015625	0		2.26846630859375	-1.7679840087890626	0		3.411934326171875	-0.5142428588867187	0		4.749650390625	0.2585516357421875	0		6.08102978515625	0.6703300170898437	0		-0.305253173828125	5.848869140625	0		
0.0021985490322113037	-0.00534233808517456	0		0.5978699951171875	-2.56935888671875	0		-1.1706044921875	-0.08074720764160156	0		-0.56685546875	-2.535838134765625	0		2.27682861328125	-1.7729244384765626	0		3.42218505859375	-0.5291910400390625	0		4.74990380859375	0.2447158966064453	0		6.07124658203125	0.6518480834960938	0		-0.3399659423828125	5.84432763671875	0		
-0.003408229112625122	-0.00115694797039032	0		0.5733018188476563	-2.563979248046875	0		-1.13629150390625	-0.08496928405761718	0		-0.4935177001953125	-2.54043896484375	0		2.2832998046875	-1.762833251953125	0		3.419662841796875	-0.5169986572265625	0		4.757244140625	0.2438245391845703	0		6.07498681640625	0.633067138671875	0		-0.3056380615234375	5.8481142578125	0		
-0.009042049407958984	0.004036542892456055	0		0.5736671752929687	-2.56183837890625	0		-1.156943359375	-0.08164055633544921	0		-0.560040771484375	-2.526649658203125	0		2.236816162109375	-1.7442098388671874	0		3.432984619140625	-0.5169534912109375	0		4.75655810546875	0.24402301025390624	0		6.0775625	0.6852669677734375	0		-0.325337646484375	5.8534423828125	0		
-0.0017676620483398438	0.0031077919006347655	0		0.5999609985351563	-2.563947509765625	0		-1.0507418212890625	-0.09055820465087891	0		-0.48878897094726564	-2.53321533203125	0		2.25713037109375	-1.743240478515625	0		3.435324462890625	-0.5117927551269531	0		4.7567119140625	0.2312199249267578	0		6.0833359375	0.6526300659179688	0		-0.32612185668945315	5.8535888671875	0		
